<?xml version="1.0" encoding="iso-8859-1"?>
<!-- Generator: Adobe Illustrator 18.0.0, SVG Export Plug-In . SVG Version: 6.00 Build 0)  -->
<!DOCTYPE svg PUBLIC "-//W3C//DTD SVG 1.1//EN" "http://www.w3.org/Graphics/SVG/1.1/DTD/svg11.dtd">
<svg version="1.1" id="Capa_1" xmlns="http://www.w3.org/2000/svg" xmlns:xlink="http://www.w3.org/1999/xlink" x="0px" y="0px"
	 viewBox="0 0 69.333 69.333" style="enable-background:new 0 0 69.333 69.333;" xml:space="preserve">
<path style="fill:#FFFFFF;" d="M31.12,32.137c0-0.37,0.3-0.67,0.67-0.67h3.52c0.37,0,0.67,0.3,0.67,0.67c0,0.37-0.3,0.67-0.67,0.67
	h-3.52C31.42,32.807,31.12,32.507,31.12,32.137z M63.696,40.083v28.25c0,0.552-0.448,1-1,1H48.029c-0.552,0-1-0.448-1-1V54.669
	H23.181c-7.168,0-13-5.832-13-13s5.832-13,13-13h3.07c0.491-3.594,3.573-6.375,7.299-6.375c3.726,0,6.808,2.781,7.299,6.375h5.263
	c6.065,0,11-4.935,11-11s-4.935-11-11-11H26.238V7c0,0.552-0.448,1-1,1h-4.485c-1.191,2.04-3.949,3.438-7.241,3.438
	c-4.415,0-7.874-2.512-7.874-5.719S9.096,0,13.511,0c3.189,0,5.871,1.314,7.119,3.25h4.608c0.552,0,1,0.448,1,1v0.419h19.875
	c7.168,0,13,5.832,13,13s-5.832,13-13,13h-5.263c-0.491,3.594-3.573,6.375-7.299,6.375c-3.726,0-6.808-2.781-7.299-6.375h-3.07
	c-6.065,0-11,4.935-11,11s4.935,11,11,11h23.848V40.083c0-0.552,0.448-1,1-1h14.667C63.248,39.083,63.696,39.531,63.696,40.083z
	 M19.385,5.719c0-2.016-2.69-3.719-5.874-3.719S7.637,3.703,7.637,5.719s2.69,3.719,5.874,3.719S19.385,7.734,19.385,5.719z
	 M24.238,5.25h-2.769V6h2.769V5.25z M28.175,29.669c0,2.964,2.411,5.375,5.375,5.375c2.964,0,5.375-2.411,5.375-5.375
	s-2.411-5.375-5.375-5.375C30.586,24.294,28.175,26.705,28.175,29.669z M61.696,41.083H49.029v26.25h12.667V41.083z M50.076,57.708
	v-6.999c0-1.77,1.44-3.209,3.209-3.209h4.153c1.77,0,3.209,1.439,3.209,3.209v6.999c0,1.77-1.44,3.209-3.209,3.209h-4.153
	C51.516,60.917,50.076,59.477,50.076,57.708z M51.076,57.708c0,1.218,0.991,2.209,2.209,2.209h4.153
	c1.218,0,2.209-0.991,2.209-2.209v-6.999c0-1.218-0.991-2.209-2.209-2.209h-4.153c-1.218,0-2.209,0.991-2.209,2.209V57.708z
	 M33.55,30.45c0.276,0,0.5-0.224,0.5-0.5v-3c0-0.276-0.224-0.5-0.5-0.5c-0.276,0-0.5,0.224-0.5,0.5v3
	C33.05,30.226,33.274,30.45,33.55,30.45z"/>
<g>
</g>
<g>
</g>
<g>
</g>
<g>
</g>
<g>
</g>
<g>
</g>
<g>
</g>
<g>
</g>
<g>
</g>
<g>
</g>
<g>
</g>
<g>
</g>
<g>
</g>
<g>
</g>
<g>
</g>
</svg>
